<?xml version="1.0" encoding="utf-8"?>
<!-- Generator: Adobe Illustrator 28.0.0, SVG Export Plug-In . SVG Version: 6.00 Build 0)  -->
<svg version="1.1" id="Layer_2_00000024689162453118566350000007600325132543711627_"
	 xmlns="http://www.w3.org/2000/svg" xmlns:xlink="http://www.w3.org/1999/xlink" x="0px" y="0px" viewBox="0 0 457.7 114.3"
	 style="enable-background:new 0 0 457.7 114.3;" xml:space="preserve">
<style type="text/css">
	.st0{fill:#FFFFFF;}
	.st1{fill:#734C9E;}
	.st2{fill:#DD1F7A;}
</style>
<g>
	<g>
		<g>
			<g>
				<circle class="st0" cx="138.1" cy="22.9" r="6.2"/>
				<path class="st0" d="M138.1,29.2c-3.5,0-6.3-2.8-6.3-6.3c0-3.5,2.8-6.3,6.3-6.3c3.5,0,6.3,2.8,6.3,6.3
					C144.4,26.4,141.6,29.2,138.1,29.2z M138.1,16.8c-3.4,0-6.1,2.7-6.1,6.1s2.7,6.1,6.1,6.1c3.4,0,6.1-2.7,6.1-6.1
					S141.5,16.8,138.1,16.8z"/>
			</g>
		</g>
		<g>
			<g>
				<g>
					<path class="st0" d="M239.7,97.9c1.8,0.2,2,2.7,0.2,3.2c-6.9,1.6-15.1,0.6-21.2-1.4c-7.5-2.5-14.2-7.6-17.9-14.7
						c-3.9-7.5-3.7-15.7-3.7-23.9c0-6.8,0.7-16-6.3-19.9c-5.1-2.8-13.1-1.7-17.4,2.2c-5.4,4.9-4,13.7-4.1,20.2c0,8,0,17.1-6.3,23.1
						c-5.7,5.5-14.5,6.8-21.6,3c-7.4-3.9-9.4-12.5-9.5-20.1c0-9.9,0-22.4,0-32.2c0-4.1,1.8-4,6.3-4c2.2,0,6.4-0.1,6.2,3.5
						c-0.2,4.5,0.1,20.4-0.2,26c-0.1,4.6-1.6,22,8.4,17.5c4-1.8,4.1-6.7,4.1-10.4c0-5.2-0.1-10.5,0.2-15.7c0.4-8,1.7-15.2,8.4-20.4
						c5.8-4.5,13.3-6.9,20.6-6.5c8.4,0.5,17.2,4.4,20.6,12.4c4,9.5,2,20.6,2.3,30.5c0.3,8.2,4.1,15.3,10.8,20.2
						c3.8,2.8,8.2,4.9,12.8,6.2C234.8,97.2,237.2,97.7,239.7,97.9C239.7,97.9,239.7,97.9,239.7,97.9z"/>
					<path class="st0" d="M232.6,102c-5.2,0-10.2-1-13.9-2.2c-7.9-2.6-14.5-8-18-14.7c-3.8-7.3-3.8-15.4-3.7-23.3l0-0.7
						c0-0.5,0-1,0-1.6c0.1-6.6,0.2-14.7-6.3-18.3c-5-2.8-13-1.8-17.3,2.2c-4.5,4-4.3,10.8-4.1,16.7c0,1.2,0.1,2.3,0.1,3.4l0,0.4
						c0,7.9-0.1,16.9-6.3,22.8c-2.8,2.7-6.4,4.4-10.4,5c-4,0.6-7.9-0.1-11.4-1.9c-3.4-1.8-5.9-4.7-7.5-8.7c-1.3-3.2-2-7.1-2-11.5
						c0-4.5,0-9.7,0-14.8c0-6,0-12.2,0-17.5c0-1.6,0.3-2.6,0.9-3.2c0.9-0.9,2.6-0.9,5.2-0.9l0.6,0c1.6,0,4.1,0,5.3,1.3
						c0.5,0.6,0.8,1.3,0.8,2.3c-0.1,2.2-0.1,6.8-0.1,11.8c0,5.6,0,11.3-0.1,14.3c0,0.4,0,0.9,0,1.5c-0.1,4.4-0.5,13.6,3.2,16.1
						c1.3,0.9,3,0.8,5.1-0.1c4.1-1.8,4.1-7.1,4-10.3l0-0.8c0-4.9-0.1-10,0.2-14.9c0.4-7,1.3-15,8.4-20.5c5.9-4.6,13.4-6.9,20.7-6.5
						c7.6,0.4,17.1,3.9,20.7,12.4c2.9,6.8,2.6,14.5,2.4,22c-0.1,2.8-0.2,5.8-0.1,8.6c0.3,8,4.1,15.2,10.7,20.1
						c3.8,2.8,8.1,4.9,12.8,6.2c2.3,0.6,4.7,1.1,7.2,1.4l0,0c1,0.1,1.5,0.9,1.6,1.6c0,0.7-0.4,1.5-1.3,1.8
						C237.6,101.7,235,102,232.6,102z M184,39.5c2.4,0,4.8,0.5,6.8,1.6c6.6,3.6,6.5,11.8,6.4,18.4c0,0.5,0,1.1,0,1.6l0,0.7
						c0,7.8-0.1,16,3.7,23.2c3.5,6.7,10,12,17.9,14.6c5.4,1.8,13.8,3.1,21.2,1.4c0.9-0.2,1.2-0.9,1.2-1.6c0-0.6-0.5-1.3-1.4-1.4
						l-0.1,0c-2.5-0.3-5-0.7-7.2-1.4c-4.7-1.3-9-3.4-12.8-6.2c-6.7-5-10.5-12.2-10.8-20.3c-0.1-2.8,0-5.7,0.1-8.6
						c0.3-7.4,0.5-15.1-2.4-21.9c-3.6-8.4-13-11.9-20.6-12.3c-7.2-0.4-14.7,1.9-20.5,6.5c-6.4,5-7.9,11.5-8.4,20.4
						c-0.3,5-0.2,10-0.2,14.9l0,0.8c0,3.2,0.1,8.6-4.2,10.5c-2.1,1-3.9,1-5.3,0.1c-3.8-2.5-3.5-11.8-3.3-16.2c0-0.6,0-1.1,0-1.5
						c0.1-3,0.1-8.7,0.1-14.3c0-5,0-9.6,0.1-11.8c0-0.9-0.2-1.6-0.7-2.1c-1.2-1.2-3.6-1.2-5.2-1.2l-0.6,0c-2.5,0-4.2,0-5.1,0.9
						c-0.6,0.6-0.8,1.5-0.8,3.1c0,5.3,0,11.5,0,17.5c0,5,0,10.2,0,14.8c0,5.6,1.3,15.7,9.4,20c6.9,3.7,15.8,2.4,21.5-3
						c6.2-5.9,6.2-14.8,6.2-22.7l0-0.4c0-1.1,0-2.2-0.1-3.4c-0.2-6-0.4-12.7,4.2-16.8C176,40.8,180.1,39.5,184,39.5z"/>
				</g>
			</g>
			<g>
				<g>
					<path class="st0" d="M245.1,28.7c-18.1,0-32.9,14.7-32.9,32.9c0,18.1,14.7,32.9,32.9,32.9S278,79.7,278,61.6
						C278,43.4,263.2,28.7,245.1,28.7z M245.7,81.7c-11.3,0-20.5-9.2-20.5-20.5s9.2-20.5,20.5-20.5s20.5,9.2,20.5,20.5
						S257,81.7,245.7,81.7z"/>
					<path class="st0" d="M245.1,94.5c-18.2,0-32.9-14.8-32.9-32.9s14.8-32.9,32.9-32.9S278,43.4,278,61.6S263.3,94.5,245.1,94.5z
						 M245.1,28.8c-18.1,0-32.8,14.7-32.8,32.8s14.7,32.8,32.8,32.8c18.1,0,32.8-14.7,32.8-32.8S263.2,28.8,245.1,28.8z M245.7,81.8
						c-11.4,0-20.6-9.3-20.6-20.6s9.3-20.6,20.6-20.6c11.4,0,20.6,9.3,20.6,20.6S257.1,81.8,245.7,81.8z M245.7,40.7
						c-11.3,0-20.4,9.2-20.4,20.4s9.2,20.4,20.4,20.4c11.3,0,20.4-9.2,20.4-20.4S257,40.7,245.7,40.7z"/>
				</g>
			</g>
			<g>
				<g>
					<path class="st0" d="M248.8,22c-0.4,0.2-0.9,0.5-0.6,1c0.4,0.7,1.5,0.8,2.2,0.9c1.7,0.3,3.4,0.6,5.1,0.9
						c2.9,0.5,5.8,1.1,8.5,2.1c7.2,2.8,12.8,9,16.4,15.9c3.6,6.9,5.5,14.5,7.3,22.1s3.5,15.2,6.8,22.3c0.6,1.2,1.2,2.5,2.2,3.4
						c1,0.9,2.4,1.4,3.7,1.1c1.7-0.5,2.6-2.3,3.2-3.9c7.6-18.3,13.6-37.1,19.3-56.1c0.4-1.4,0.8-2.8,0.7-4.2
						c-0.1-1.4-0.8-2.9-2.1-3.5c-1.5-0.7-3.3,0-4.5,1.3c-1.1,1.2-1.7,2.8-2.2,4.4c-4.1,12.2-8.3,24.3-12.4,36.5
						c-0.4,1.2-1,2.6-2.2,2.9c-1.8,0.5-3.1-1.6-3.7-3.3c-3.6-9.9-4.8-20.8-10.5-29.6c-3.9-6.1-9.8-10.8-16.6-13.3
						c-3.2-1.2-6.5-1.8-9.9-2c-3.4-0.2-6.8,0.2-10.1,1C249.3,21.8,249,21.9,248.8,22z"/>
					<path class="st0" d="M299.6,93c-1.3,0-2.6-0.5-3.7-1.5c-1.2-1.1-1.9-2.5-2.5-3.8c-3.2-6.9-5-14.4-6.7-21.6l-0.2-0.9
						c-1.9-8.1-3.7-15.3-7.2-21.8c-3.9-7.4-9.5-12.9-15.7-15.3c-2.7-1.1-5.7-1.6-8.2-2.1c-0.5-0.1-0.9-0.2-1.4-0.2
						c-1.2-0.2-2.5-0.4-3.8-0.7c-0.1,0-0.2,0-0.3-0.1c-0.8-0.1-2.2-0.3-2.8-1.5c-0.2-0.5-0.3-1-0.1-1.4c0.2-0.5,0.7-1,1.4-1.3
						c0.3-0.1,0.6-0.2,0.8-0.3c3.4-0.9,6.9-1.3,10.5-1.1c3.5,0.2,7,0.9,10.3,2.1c7,2.6,13.1,7.5,17.2,13.8
						c3.8,5.9,5.7,12.7,7.5,19.3c1,3.5,1.9,7.1,3.2,10.5c0.5,1.4,1.4,2.7,2.2,2.5c0.6-0.2,1-1.2,1.3-2.1l12.4-36.5
						c0.5-1.6,1.2-3.4,2.5-4.8c1.6-1.8,4-2.4,5.9-1.6c1.6,0.7,2.7,2.5,2.9,4.6c0.1,1.7-0.4,3.3-0.8,4.7
						c-5.5,18.2-11.6,37.6-19.4,56.2c-0.6,1.4-1.6,3.9-4,4.7C300.4,92.9,300,93,299.6,93z M251.1,22.7c1.1,0.2,2.1,0.4,3.2,0.6
						c0.5,0.1,0.9,0.2,1.4,0.2c2.7,0.5,5.8,1.1,8.7,2.2c6.8,2.7,12.9,8.5,17.1,16.5c3.6,6.8,5.4,14.2,7.4,22.4l0.2,0.9
						c1.7,7.1,3.4,14.5,6.5,21.1c0.5,1,1.1,2.2,1.9,3c0.8,0.7,1.8,1,2.5,0.8c1.2-0.4,1.9-1.8,2.4-3.2c7.7-18.5,13.8-37.9,19.3-56
						c0.4-1.2,0.8-2.5,0.7-3.7c-0.1-0.9-0.5-2-1.4-2.4c-1-0.4-2.3,0.1-3,1c-1,1-1.5,2.5-1.9,3.9l-12.4,36.5c-0.4,1-1.1,3.2-3.1,3.7
						c-2.1,0.5-4.1-1-5.2-4.1c-1.3-3.5-2.3-7.2-3.3-10.8c-1.8-6.7-3.6-13-7.1-18.6c-3.8-5.8-9.4-10.4-15.9-12.8
						c-3-1.1-6.2-1.8-9.5-1.9C256.6,21.9,253.8,22.1,251.1,22.7z"/>
				</g>
			</g>
		</g>
	</g>
	<g>
		<path class="st0" d="M330,41.4c0.7,0,1.2-0.1,1.6-0.4c0.3-0.2,0.5-0.6,0.5-1c0-0.3-0.1-0.5-0.2-0.7c-0.1-0.2-0.3-0.4-0.5-0.5
			c-0.2-0.2-0.5-0.3-0.7-0.4c-0.3-0.1-0.6-0.3-1-0.4c-0.4-0.1-0.7-0.3-1.1-0.4s-0.7-0.4-0.9-0.6c-0.3-0.2-0.5-0.5-0.6-0.9
			c-0.2-0.3-0.2-0.7-0.2-1.2c0-1,0.3-1.8,1-2.3c0.7-0.6,1.6-0.8,2.8-0.8c0.7,0,1.3,0.1,1.8,0.2c0.5,0.2,0.9,0.3,1.2,0.5l-0.6,1.6
			c-0.4-0.2-0.7-0.4-1.2-0.5c-0.4-0.1-0.9-0.2-1.3-0.2c-0.5,0-0.9,0.1-1.2,0.3s-0.4,0.5-0.4,0.9c0,0.2,0,0.4,0.1,0.6
			c0.1,0.2,0.2,0.3,0.4,0.5c0.2,0.1,0.4,0.3,0.6,0.4c0.2,0.1,0.5,0.2,0.8,0.3c0.5,0.2,1,0.4,1.4,0.6c0.4,0.2,0.7,0.4,1,0.7
			c0.3,0.3,0.5,0.6,0.6,0.9s0.2,0.8,0.2,1.3c0,1-0.3,1.7-1,2.3s-1.7,0.8-3,0.8c-0.4,0-0.9,0-1.2-0.1c-0.4-0.1-0.7-0.1-1-0.2
			s-0.5-0.2-0.7-0.3c-0.2-0.1-0.4-0.2-0.5-0.2l0.6-1.6c0.3,0.2,0.7,0.3,1.1,0.5S329.3,41.4,330,41.4z"/>
		<path class="st0" d="M335.8,42.9V32h7v1.7h-5v2.7h4.5V38h-4.5v3.2h5.4v1.7H335.8z"/>
		<path class="st0" d="M352.6,32v1.7h-3.3v9.2h-2v-9.2h-3.3V32H352.6z"/>
		<path class="st0" d="M364.2,37.4c0,0.9-0.1,1.7-0.4,2.5c-0.3,0.7-0.7,1.3-1.1,1.8c-0.5,0.5-1,0.8-1.7,1.1c-0.6,0.2-1.3,0.4-2,0.4
			s-1.4-0.1-2-0.4s-1.2-0.6-1.7-1.1c-0.5-0.5-0.9-1.1-1.1-1.8c-0.3-0.7-0.4-1.5-0.4-2.5s0.1-1.7,0.4-2.5c0.3-0.7,0.7-1.3,1.2-1.8
			s1-0.8,1.7-1.1c0.6-0.2,1.3-0.4,2-0.4c0.7,0,1.4,0.1,2,0.4c0.6,0.2,1.2,0.6,1.7,1.1s0.9,1.1,1.1,1.8
			C364,35.7,364.2,36.5,364.2,37.4z M355.7,37.4c0,0.6,0.1,1.1,0.2,1.6s0.4,0.9,0.6,1.2c0.3,0.3,0.6,0.6,1,0.8
			c0.4,0.2,0.8,0.3,1.3,0.3c0.5,0,0.9-0.1,1.3-0.3c0.4-0.2,0.7-0.5,1-0.8c0.3-0.3,0.5-0.8,0.6-1.2s0.2-1,0.2-1.6
			c0-0.6-0.1-1.1-0.2-1.6c-0.1-0.5-0.4-0.9-0.6-1.2c-0.3-0.3-0.6-0.6-1-0.8c-0.4-0.2-0.8-0.3-1.3-0.3c-0.5,0-1,0.1-1.3,0.3
			c-0.4,0.2-0.7,0.5-1,0.8c-0.3,0.3-0.5,0.8-0.6,1.2S355.7,36.9,355.7,37.4z"/>
		<path class="st0" d="M369.3,31.9c1.6,0,2.8,0.3,3.6,0.9c0.8,0.6,1.2,1.5,1.2,2.6c0,1.5-0.7,2.5-2.2,3c0.2,0.2,0.4,0.5,0.7,0.9
			s0.5,0.7,0.8,1.1s0.5,0.8,0.8,1.2c0.2,0.4,0.5,0.8,0.6,1.2h-2.2c-0.2-0.4-0.4-0.8-0.6-1.1c-0.2-0.4-0.5-0.8-0.7-1.1
			s-0.5-0.7-0.7-1c-0.2-0.3-0.4-0.6-0.6-0.9c-0.1,0-0.3,0-0.4,0s-0.2,0-0.3,0h-1v4.1h-2V32.2c0.5-0.1,1-0.2,1.5-0.2
			C368.4,31.9,368.9,31.9,369.3,31.9z M369.5,33.6c-0.4,0-0.8,0-1.2,0v3.5h0.9c0.5,0,0.9,0,1.3-0.1c0.4-0.1,0.7-0.1,0.9-0.3
			c0.2-0.1,0.4-0.3,0.6-0.5c0.1-0.2,0.2-0.5,0.2-0.9c0-0.3-0.1-0.6-0.2-0.8c-0.1-0.2-0.3-0.4-0.5-0.5c-0.2-0.1-0.5-0.2-0.8-0.3
			C370.2,33.7,369.9,33.6,369.5,33.6z"/>
		<path class="st0" d="M383.1,31.9c1.6,0,2.8,0.3,3.6,0.9c0.8,0.6,1.3,1.5,1.3,2.7c0,0.6-0.1,1.2-0.3,1.6c-0.2,0.5-0.6,0.8-1,1.1
			c-0.4,0.3-1,0.5-1.6,0.6s-1.3,0.2-2.1,0.2h-1v3.8h-2V32.2c0.5-0.1,1-0.2,1.5-0.2C382.1,31.9,382.6,31.9,383.1,31.9z M383.2,33.6
			c-0.5,0-0.9,0-1.2,0v3.7h1c1,0,1.7-0.1,2.2-0.4c0.5-0.3,0.8-0.8,0.8-1.5c0-0.4-0.1-0.7-0.2-0.9c-0.1-0.2-0.3-0.4-0.6-0.6
			s-0.5-0.2-0.9-0.3C384,33.7,383.6,33.6,383.2,33.6z"/>
		<path class="st0" d="M392.8,31.9c1.6,0,2.8,0.3,3.6,0.9c0.8,0.6,1.2,1.5,1.2,2.6c0,1.5-0.7,2.5-2.2,3c0.2,0.2,0.4,0.5,0.7,0.9
			s0.5,0.7,0.8,1.1s0.5,0.8,0.8,1.2c0.2,0.4,0.5,0.8,0.6,1.2h-2.2c-0.2-0.4-0.4-0.8-0.6-1.1c-0.2-0.4-0.5-0.8-0.7-1.1
			s-0.5-0.7-0.7-1c-0.2-0.3-0.4-0.6-0.6-0.9c-0.1,0-0.3,0-0.4,0s-0.2,0-0.3,0h-1v4.1h-2V32.2c0.5-0.1,1-0.2,1.5-0.2
			C391.9,31.9,392.4,31.9,392.8,31.9z M392.9,33.6c-0.4,0-0.8,0-1.2,0v3.5h0.9c0.5,0,0.9,0,1.3-0.1c0.4-0.1,0.7-0.1,0.9-0.3
			c0.2-0.1,0.4-0.3,0.6-0.5c0.1-0.2,0.2-0.5,0.2-0.9c0-0.3-0.1-0.6-0.2-0.8c-0.1-0.2-0.3-0.4-0.5-0.5c-0.2-0.1-0.5-0.2-0.8-0.3
			C393.7,33.7,393.3,33.6,392.9,33.6z"/>
		<path class="st0" d="M399.8,32h2v10.9h-2V32z"/>
		<path class="st0" d="M407.5,42.9c-0.8-1.7-1.5-3.5-2.3-5.3c-0.7-1.8-1.4-3.7-2-5.5h2.2c0.3,0.7,0.5,1.5,0.8,2.2
			c0.3,0.8,0.5,1.5,0.8,2.2c0.3,0.7,0.5,1.4,0.8,2.1s0.5,1.3,0.8,1.9c0.2-0.6,0.5-1.2,0.8-1.9c0.3-0.7,0.5-1.4,0.8-2.1
			c0.3-0.7,0.5-1.5,0.8-2.3c0.3-0.8,0.5-1.5,0.8-2.2h2.1c-0.6,1.8-1.3,3.7-2,5.5c-0.7,1.8-1.5,3.6-2.3,5.3H407.5z"/>
		<path class="st0" d="M422.3,42.9c-0.1-0.4-0.3-0.9-0.5-1.3s-0.3-0.8-0.5-1.3h-4.6c-0.1,0.4-0.3,0.9-0.4,1.3
			c-0.2,0.4-0.3,0.8-0.4,1.3h-2.1c0.4-1.2,0.8-2.2,1.2-3.2s0.7-1.9,1.1-2.8s0.7-1.7,1-2.5c0.3-0.8,0.7-1.6,1.1-2.4h1.9
			c0.4,0.8,0.7,1.6,1.1,2.4c0.3,0.8,0.7,1.6,1,2.5c0.4,0.9,0.7,1.8,1.1,2.8c0.4,1,0.8,2.1,1.2,3.2H422.3z M419.1,34.1
			c-0.2,0.6-0.5,1.2-0.8,2c-0.3,0.8-0.6,1.7-1,2.6h3.6c-0.3-0.9-0.7-1.8-1-2.6C419.6,35.3,419.3,34.7,419.1,34.1z"/>
		<path class="st0" d="M435,37.4c0,0.9-0.1,1.8-0.4,2.5c-0.3,0.7-0.7,1.3-1.2,1.7s-1.2,0.8-1.9,1c-0.8,0.2-1.6,0.3-2.5,0.3
			c-0.4,0-0.9,0-1.5-0.1s-1.1-0.1-1.6-0.2V32.2c0.5-0.1,1-0.2,1.6-0.2c0.6,0,1.1,0,1.5,0c0.9,0,1.7,0.1,2.5,0.3
			c0.8,0.2,1.4,0.5,1.9,1c0.5,0.5,1,1,1.2,1.7C434.9,35.7,435,36.5,435,37.4z M427.8,41.3c0.1,0,0.3,0,0.5,0c0.2,0,0.4,0,0.8,0
			c1.3,0,2.3-0.3,3-1c0.7-0.7,1-1.6,1-2.8c0-1.2-0.3-2.2-1-2.8c-0.6-0.7-1.6-1-3-1c-0.6,0-1,0-1.3,0V41.3z"/>
		<path class="st0" d="M447.3,37.4c0,0.9-0.1,1.7-0.4,2.5c-0.3,0.7-0.7,1.3-1.1,1.8c-0.5,0.5-1,0.8-1.7,1.1c-0.6,0.2-1.3,0.4-2,0.4
			s-1.4-0.1-2-0.4s-1.2-0.6-1.7-1.1c-0.5-0.5-0.9-1.1-1.1-1.8c-0.3-0.7-0.4-1.5-0.4-2.5s0.1-1.7,0.4-2.5c0.3-0.7,0.7-1.3,1.2-1.8
			s1-0.8,1.7-1.1c0.6-0.2,1.3-0.4,2-0.4c0.7,0,1.4,0.1,2,0.4c0.6,0.2,1.2,0.6,1.7,1.1s0.9,1.1,1.1,1.8
			C447.1,35.7,447.3,36.5,447.3,37.4z M438.8,37.4c0,0.6,0.1,1.1,0.2,1.6s0.4,0.9,0.6,1.2c0.3,0.3,0.6,0.6,1,0.8
			c0.4,0.2,0.8,0.3,1.3,0.3c0.5,0,0.9-0.1,1.3-0.3c0.4-0.2,0.7-0.5,1-0.8c0.3-0.3,0.5-0.8,0.6-1.2s0.2-1,0.2-1.6
			c0-0.6-0.1-1.1-0.2-1.6c-0.1-0.5-0.4-0.9-0.6-1.2c-0.3-0.3-0.6-0.6-1-0.8c-0.4-0.2-0.8-0.3-1.3-0.3c-0.5,0-1,0.1-1.3,0.3
			c-0.4,0.2-0.7,0.5-1,0.8c-0.3,0.3-0.5,0.8-0.6,1.2S438.8,36.9,438.8,37.4z"/>
	</g>
	<g>
		<path class="st0" d="M15.2,78.3c0.7,0,1.2-0.1,1.6-0.4s0.5-0.6,0.5-1c0-0.3-0.1-0.5-0.2-0.7c-0.1-0.2-0.3-0.4-0.5-0.5
			c-0.2-0.2-0.5-0.3-0.7-0.4c-0.3-0.1-0.6-0.3-1-0.4c-0.4-0.1-0.7-0.3-1.1-0.4s-0.7-0.4-0.9-0.6c-0.3-0.2-0.5-0.5-0.6-0.9
			c-0.2-0.3-0.2-0.7-0.2-1.2c0-1,0.3-1.8,1-2.3c0.7-0.6,1.6-0.8,2.8-0.8c0.7,0,1.3,0.1,1.8,0.2s0.9,0.3,1.2,0.5l-0.6,1.6
			c-0.4-0.2-0.7-0.3-1.2-0.5c-0.4-0.1-0.9-0.2-1.3-0.2c-0.5,0-0.9,0.1-1.2,0.3c-0.3,0.2-0.4,0.5-0.4,0.9c0,0.2,0,0.4,0.1,0.6
			c0.1,0.2,0.2,0.3,0.4,0.5s0.4,0.3,0.6,0.4c0.2,0.1,0.5,0.2,0.8,0.3c0.5,0.2,1,0.4,1.4,0.6c0.4,0.2,0.7,0.4,1,0.7
			c0.3,0.3,0.5,0.6,0.6,0.9c0.1,0.4,0.2,0.8,0.2,1.3c0,1-0.3,1.7-1,2.3c-0.7,0.5-1.7,0.8-3,0.8c-0.4,0-0.9,0-1.2-0.1
			c-0.4-0.1-0.7-0.1-1-0.2c-0.3-0.1-0.5-0.2-0.7-0.3c-0.2-0.1-0.4-0.2-0.5-0.2l0.6-1.6c0.3,0.2,0.7,0.3,1.1,0.5
			C13.9,78.2,14.5,78.3,15.2,78.3z"/>
		<path class="st0" d="M21,79.7V68.9h7v1.7h-5v2.7h4.4v1.6H23v3.2h5.4v1.7H21z"/>
		<path class="st0" d="M37.7,68.9v1.7h-3.3v9.2h-2v-9.2h-3.3v-1.7H37.7z"/>
		<path class="st0" d="M49.3,74.3c0,0.9-0.1,1.8-0.4,2.5c-0.3,0.7-0.7,1.3-1.1,1.8c-0.5,0.5-1,0.8-1.7,1.1s-1.3,0.4-2,0.4
			s-1.4-0.1-2-0.4c-0.6-0.2-1.2-0.6-1.7-1.1c-0.5-0.5-0.9-1.1-1.1-1.8c-0.3-0.7-0.4-1.5-0.4-2.5c0-0.9,0.1-1.7,0.4-2.5
			c0.3-0.7,0.7-1.3,1.2-1.8s1-0.8,1.7-1.1c0.6-0.2,1.3-0.4,2-0.4s1.4,0.1,2,0.4c0.6,0.2,1.2,0.6,1.7,1.1c0.5,0.5,0.9,1.1,1.1,1.8
			S49.3,73.4,49.3,74.3z M40.9,74.3c0,0.6,0.1,1.1,0.2,1.6c0.1,0.5,0.4,0.9,0.6,1.2c0.3,0.3,0.6,0.6,1,0.8c0.4,0.2,0.8,0.3,1.3,0.3
			c0.5,0,0.9-0.1,1.3-0.3c0.4-0.2,0.7-0.5,1-0.8c0.3-0.3,0.5-0.8,0.6-1.2s0.2-1,0.2-1.6c0-0.6-0.1-1.1-0.2-1.6
			c-0.1-0.5-0.4-0.9-0.6-1.2c-0.3-0.3-0.6-0.6-1-0.8c-0.4-0.2-0.8-0.3-1.3-0.3c-0.5,0-1,0.1-1.3,0.3c-0.4,0.2-0.7,0.5-1,0.8
			c-0.3,0.3-0.5,0.8-0.6,1.2C40.9,73.2,40.9,73.7,40.9,74.3z"/>
		<path class="st0" d="M54.5,68.8c1.6,0,2.8,0.3,3.6,0.9s1.2,1.5,1.2,2.6c0,1.5-0.7,2.5-2.2,3c0.2,0.2,0.4,0.5,0.7,0.9
			c0.3,0.3,0.5,0.7,0.8,1.1s0.5,0.8,0.8,1.2c0.2,0.4,0.5,0.8,0.6,1.2h-2.2c-0.2-0.4-0.4-0.8-0.6-1.1c-0.2-0.4-0.5-0.8-0.7-1.1
			c-0.2-0.4-0.5-0.7-0.7-1c-0.2-0.3-0.4-0.6-0.6-0.9c-0.1,0-0.3,0-0.4,0s-0.2,0-0.3,0h-1v4.1h-2V69c0.5-0.1,1-0.2,1.5-0.2
			C53.6,68.8,54.1,68.8,54.5,68.8z M54.6,70.5c-0.4,0-0.8,0-1.2,0V74h0.9c0.5,0,0.9,0,1.3-0.1c0.4-0.1,0.7-0.1,0.9-0.3
			s0.4-0.3,0.6-0.5c0.1-0.2,0.2-0.5,0.2-0.9c0-0.3-0.1-0.6-0.2-0.8c-0.1-0.2-0.3-0.4-0.5-0.5c-0.2-0.1-0.5-0.2-0.8-0.3
			C55.4,70.5,55,70.5,54.6,70.5z"/>
		<path class="st0" d="M68.2,68.8c1.6,0,2.8,0.3,3.6,0.9s1.3,1.5,1.3,2.7c0,0.6-0.1,1.2-0.3,1.6c-0.2,0.5-0.6,0.8-1,1.1
			c-0.4,0.3-1,0.5-1.6,0.6c-0.6,0.1-1.3,0.2-2.1,0.2h-1v3.8h-2V69c0.5-0.1,1-0.2,1.5-0.2C67.3,68.8,67.8,68.8,68.2,68.8z M68.4,70.5
			c-0.5,0-0.9,0-1.2,0v3.7h1c1,0,1.7-0.1,2.2-0.4c0.5-0.3,0.8-0.8,0.8-1.5c0-0.4-0.1-0.7-0.2-0.9s-0.3-0.4-0.6-0.6
			c-0.2-0.1-0.5-0.2-0.9-0.3S68.8,70.5,68.4,70.5z"/>
		<path class="st0" d="M79.1,80c-0.7,0-1.4-0.1-1.9-0.3c-0.5-0.2-1-0.5-1.3-0.9c-0.4-0.4-0.6-0.8-0.8-1.4c-0.2-0.5-0.3-1.1-0.3-1.7
			v-6.8h2v6.6c0,0.5,0.1,0.9,0.2,1.3c0.1,0.4,0.3,0.6,0.5,0.9c0.2,0.2,0.4,0.4,0.7,0.5s0.6,0.2,0.9,0.2s0.7-0.1,0.9-0.2
			s0.5-0.3,0.7-0.5c0.2-0.2,0.4-0.5,0.5-0.9c0.1-0.3,0.2-0.8,0.2-1.3v-6.6h2v6.8c0,0.6-0.1,1.2-0.3,1.7c-0.2,0.5-0.4,1-0.8,1.4
			c-0.4,0.4-0.8,0.7-1.3,0.9C80.5,79.9,79.9,80,79.1,80z M81.8,65.7l-2.6,2.5l-0.9-0.8l2.3-2.7L81.8,65.7z"/>
		<path class="st0" d="M89.2,79.9c-0.6,0-1.2,0-1.7-0.1c-0.6,0-1.1-0.1-1.5-0.2V69c0.2,0,0.5-0.1,0.7-0.1c0.3,0,0.5-0.1,0.8-0.1
			c0.3,0,0.5,0,0.8,0c0.3,0,0.5,0,0.8,0c0.7,0,1.3,0,1.8,0.1s1.1,0.3,1.5,0.5c0.4,0.2,0.7,0.5,1,0.9c0.2,0.4,0.3,0.8,0.3,1.4
			c0,0.5-0.1,1-0.4,1.3c-0.2,0.4-0.6,0.7-1,0.9c0.7,0.2,1.1,0.5,1.5,1c0.3,0.4,0.5,1,0.5,1.6c0,1.1-0.4,2-1.2,2.5
			C92.2,79.6,90.9,79.9,89.2,79.9z M87.9,73.3h1.4c0.8,0,1.3-0.1,1.8-0.3c0.4-0.2,0.6-0.6,0.6-1.2c0-0.5-0.2-0.9-0.7-1.1
			c-0.4-0.2-1-0.3-1.7-0.3c-0.3,0-0.6,0-0.8,0c-0.2,0-0.4,0-0.6,0V73.3z M87.9,74.9v3.3c0.2,0,0.5,0,0.7,0c0.3,0,0.5,0,0.7,0
			c0.4,0,0.8,0,1.1-0.1c0.4-0.1,0.7-0.1,0.9-0.3s0.5-0.3,0.6-0.5c0.2-0.2,0.2-0.5,0.2-0.8c0-0.6-0.2-1-0.7-1.3s-1.1-0.4-1.9-0.4
			H87.9z"/>
		<path class="st0" d="M103.1,78v1.7h-6.9V68.9h2V78H103.1z"/>
		<path class="st0" d="M104.6,68.9h2v10.9h-2V68.9z"/>
		<path class="st0" d="M114,80c-0.8,0-1.5-0.1-2.2-0.4c-0.6-0.3-1.2-0.6-1.6-1.1c-0.4-0.5-0.8-1.1-1-1.8c-0.2-0.7-0.4-1.5-0.4-2.4
			c0-0.9,0.1-1.7,0.4-2.4c0.3-0.7,0.7-1.3,1.1-1.8c0.5-0.5,1-0.9,1.7-1.1c0.6-0.2,1.3-0.4,2.1-0.4c0.4,0,0.9,0,1.2,0.1
			c0.4,0.1,0.7,0.1,1,0.2c0.3,0.1,0.5,0.2,0.7,0.3s0.3,0.2,0.4,0.2l-0.6,1.6c-0.3-0.2-0.6-0.3-1.1-0.4c-0.5-0.1-1-0.2-1.5-0.2
			c-0.5,0-0.9,0.1-1.3,0.2c-0.4,0.2-0.8,0.4-1.1,0.7c-0.3,0.3-0.5,0.7-0.7,1.2c-0.2,0.5-0.3,1.1-0.3,1.7c0,0.6,0.1,1.1,0.2,1.6
			c0.1,0.5,0.3,0.9,0.6,1.2c0.3,0.4,0.6,0.6,1,0.8c0.4,0.2,0.9,0.3,1.5,0.3c0.7,0,1.3-0.1,1.7-0.2c0.4-0.1,0.8-0.3,1-0.4l0.5,1.6
			c-0.1,0.1-0.3,0.2-0.5,0.2c-0.2,0.1-0.5,0.2-0.8,0.2c-0.3,0.1-0.6,0.1-1,0.2C114.8,80,114.4,80,114,80z"/>
		<path class="st0" d="M129.3,74.3c0,0.9-0.1,1.8-0.4,2.5c-0.3,0.7-0.7,1.3-1.1,1.8c-0.5,0.5-1,0.8-1.7,1.1s-1.3,0.4-2,0.4
			s-1.4-0.1-2-0.4c-0.6-0.2-1.2-0.6-1.7-1.1c-0.5-0.5-0.9-1.1-1.1-1.8c-0.3-0.7-0.4-1.5-0.4-2.5c0-0.9,0.1-1.7,0.4-2.5
			c0.3-0.7,0.7-1.3,1.2-1.8s1-0.8,1.7-1.1c0.6-0.2,1.3-0.4,2-0.4s1.4,0.1,2,0.4c0.6,0.2,1.2,0.6,1.7,1.1c0.5,0.5,0.9,1.1,1.1,1.8
			S129.3,73.4,129.3,74.3z M120.8,74.3c0,0.6,0.1,1.1,0.2,1.6c0.1,0.5,0.4,0.9,0.6,1.2c0.3,0.3,0.6,0.6,1,0.8
			c0.4,0.2,0.8,0.3,1.3,0.3c0.5,0,0.9-0.1,1.3-0.3c0.4-0.2,0.7-0.5,1-0.8c0.3-0.3,0.5-0.8,0.6-1.2s0.2-1,0.2-1.6
			c0-0.6-0.1-1.1-0.2-1.6c-0.1-0.5-0.4-0.9-0.6-1.2c-0.3-0.3-0.6-0.6-1-0.8c-0.4-0.2-0.8-0.3-1.3-0.3c-0.5,0-1,0.1-1.3,0.3
			c-0.4,0.2-0.7,0.5-1,0.8c-0.3,0.3-0.5,0.8-0.6,1.2C120.9,73.2,120.8,73.7,120.8,74.3z"/>
	</g>
	<path class="st1" d="M133,74.2c-0.7-3.8,2.5-7,6.3-6.3c2.1,0.4,3.8,2.1,4.2,4.2c0.7,3.8-2.5,7-6.3,6.3
		C135.1,78,133.4,76.3,133,74.2z"/>
</g>
<path class="st2" d="M311.8,37.7c-0.7-3.8,2.5-7,6.3-6.3c2.1,0.4,3.8,2.1,4.2,4.2c0.7,3.8-2.5,7-6.3,6.3
	C313.9,41.5,312.2,39.8,311.8,37.7z"/>
</svg>
