<?xml version="1.0" encoding="UTF-8"?>
<svg id="Layer_2" xmlns="http://www.w3.org/2000/svg" version="1.1" viewBox="0 0 457.7 114.3">
  <!-- Generator: Adobe Illustrator 29.0.0, SVG Export Plug-In . SVG Version: 2.1.0 Build 186)  -->
  <defs>
    <style>
      .st0 {
        fill: #734d9f;
      }

      .st1 {
        fill: #fff;
      }

      .st2 {
        fill: none;
      }

      .st3 {
        isolation: isolate;
      }

      .st4 {
        fill: #dd217a;
      }
    </style>
  </defs>
  <g id="Layer_2-2">
    <g>
      <g>
        <g>
          <circle cx="99.1" cy="8.4" r="8.3"/>
          <path class="st1" d="M99.1,16.9c-4.7,0-8.4-3.8-8.4-8.4S94.4,0,99.1,0s8.4,3.8,8.4,8.4-3.8,8.4-8.4,8.4ZM99.1.2c-4.5,0-8.2,3.7-8.2,8.2s3.7,8.2,8.2,8.2,8.2-3.7,8.2-8.2S103.6.2,99.1.2h0Z"/>
        </g>
        <g>
          <g>
            <path d="M235.2,109c2.5.2,2.7,3.7.3,4.2-9.2,2.1-20.2.8-28.5-1.9-10.1-3.3-19.1-10.2-24-19.6-5.2-10-5-21.1-5-32.1,0-9.1,1-21.5-8.5-26.7-6.8-3.7-17.6-2.3-23.3,2.9-7.3,6.6-5.4,18.4-5.4,27.1,0,10.8,0,23-8.4,31-7.7,7.3-19.5,9.1-29,4.1-9.8-5.2-12.7-16.7-12.7-26.9,0-13.2,0-30,0-43.2,0-5.5,2.5-5.4,8.5-5.4,3,0,8.5-.2,8.3,4.6-.2,6.1,0,27.3-.2,34.9,0,6.1-2.1,29.5,11.3,23.5,5.4-2.4,5.5-9,5.5-13.9,0-7-.1-14.1.2-21.1.6-10.8,2.3-20.4,11.3-27.4,7.7-6,17.8-9.3,27.6-8.7,11.2.6,23.1,5.9,27.6,16.6,5.4,12.7,2.6,27.6,3.1,40.9.4,11,5.6,20.5,14.4,27.1,5.1,3.8,11,6.6,17.1,8.3,3.2.9,6.4,1.5,9.7,1.8h0Z"/>
            <path class="st2" d="M225.6,114.3c-6.9,0-13.7-1.3-18.6-3-10.6-3.5-19.4-10.7-24.1-19.7-5.1-9.8-5-20.7-5-31.2v-.9c0-.7,0-1.4,0-2.1.1-8.8.2-19.7-8.4-24.5-6.7-3.7-17.4-2.4-23.2,2.9-6,5.4-5.7,14.4-5.5,22.4,0,1.6.1,3.2,0,4.6v.5c0,10.6,0,22.6-8.4,30.6-3.8,3.6-8.6,5.9-13.9,6.7-5.3.8-10.6-.1-15.3-2.6-4.5-2.4-7.9-6.3-10.1-11.7-1.8-4.3-2.7-9.5-2.7-15.4,0-6.1,0-13,0-19.8,0-8,0-16.3,0-23.4,0-2.1.3-3.5,1.2-4.3,1.2-1.2,3.5-1.2,7-1.2h.8c2.2,0,5.5,0,7.1,1.7.7.8,1.1,1.8,1,3.1-.1,2.9,0,9.1,0,15.8,0,7.4,0,15.1-.1,19.1,0,.5,0,1.2,0,2-.2,5.9-.6,18.2,4.3,21.5,1.7,1.2,4,1.1,6.8-.1,5.5-2.5,5.4-9.6,5.4-13.8v-1.1c0-6.6-.1-13.3.2-20,.5-9.4,1.8-20.1,11.3-27.5,7.9-6.1,18-9.3,27.7-8.7,10.2.6,22.9,5.3,27.8,16.7,3.9,9.1,3.6,19.5,3.2,29.4-.1,3.8-.3,7.8-.1,11.5.4,10.8,5.4,20.3,14.4,27,5,3.8,10.8,6.5,17.1,8.3,3,.8,6.3,1.4,9.7,1.8h0c1.4.1,2,1.2,2.1,2.1,0,.9-.5,2.1-1.8,2.3-3.2.7-6.6,1-9.9,1h0ZM160.6,30.7c3.3,0,6.5.7,9.1,2.1,8.8,4.8,8.7,15.8,8.6,24.7,0,.7,0,1.4,0,2.1v.9c0,10.5-.1,21.4,4.9,31.1,4.7,9,13.4,16.1,23.9,19.6,7.3,2.4,18.5,4.2,28.4,1.9,1.2-.3,1.6-1.2,1.6-2.1,0-.9-.6-1.8-1.9-1.9h0c-3.4-.4-6.7-1-9.7-1.8-6.3-1.8-12.1-4.6-17.2-8.3-9-6.7-14.1-16.3-14.5-27.2-.1-3.7,0-7.7.1-11.5.3-10,.7-20.2-3.2-29.3-4.8-11.3-17.4-15.9-27.6-16.5-9.7-.6-19.7,2.6-27.5,8.7-8.5,6.6-10.6,15.4-11.2,27.3-.3,6.7-.3,13.4-.2,20v1.1c0,4.3,0,11.5-5.6,14.1-2.9,1.3-5.2,1.3-7.1,0-5.1-3.4-4.7-15.8-4.5-21.8,0-.8,0-1.4,0-2,.2-4,.1-11.7.1-19.1,0-6.6,0-12.9,0-15.8,0-1.2-.3-2.2-1-2.9-1.6-1.6-4.8-1.6-6.9-1.6h-.8c-3.4,0-5.6,0-6.8,1.2-.8.8-1.1,2-1.1,4.1,0,7.1,0,15.4,0,23.4,0,6.7,0,13.7,0,19.8,0,7.5,1.7,21.1,12.6,26.8,9.3,4.9,21.2,3.2,28.9-4.1,8.3-7.9,8.3-19.8,8.4-30.4v-.5c0-1.5,0-3,0-4.6-.2-8-.5-17,5.6-22.6,3.6-3.3,9.1-5,14.4-5h0Z"/>
          </g>
          <g>
            <path d="M242.4,16.2c-24.3,0-44,19.7-44,44s19.7,44,44,44,44-19.7,44-44-19.7-44-44-44h0ZM243.2,87.2c-15.2,0-27.5-12.3-27.5-27.5s12.3-27.5,27.5-27.5,27.5,12.3,27.5,27.5-12.3,27.5-27.5,27.5Z"/>
            <path class="st1" d="M242.4,104.4c-24.4,0-44.2-19.8-44.2-44.2s19.8-44.2,44.2-44.2,44.2,19.8,44.2,44.2-19.8,44.2-44.2,44.2h0ZM242.4,16.3c-24.2,0-43.9,19.7-43.9,43.9s19.7,43.9,43.9,43.9,43.9-19.7,43.9-43.9-19.7-43.9-43.9-43.9h0ZM243.2,87.4c-15.2,0-27.6-12.4-27.6-27.7s12.4-27.7,27.6-27.7,27.6,12.4,27.6,27.7-12.4,27.7-27.6,27.7ZM243.2,32.3c-15.1,0-27.4,12.3-27.4,27.4s12.3,27.4,27.4,27.4,27.4-12.3,27.4-27.4-12.3-27.4-27.4-27.4Z"/>
          </g>
          <g>
            <path d="M247.4,7.2c-.6.2-1.1.7-.8,1.3.5,1,2.1,1,3,1.2,2.3.4,4.6.8,6.9,1.2,3.9.7,7.7,1.4,11.4,2.8,9.7,3.8,17.2,12.1,22,21.3,4.8,9.2,7.4,19.5,9.7,29.6s4.7,20.4,9.1,29.9c.8,1.6,1.6,3.3,3,4.5s3.3,1.9,5,1.4c2.3-.7,3.4-3.1,4.3-5.3,10.2-24.5,18.2-49.8,25.9-75.2.5-1.8,1.1-3.7,1-5.6s-1.1-3.9-2.9-4.7c-2-.9-4.5,0-6,1.7-1.5,1.6-2.2,3.8-3,5.9-5.5,16.3-11.1,32.6-16.6,48.9-.5,1.6-1.3,3.5-3,3.9-2.4.6-4.2-2.1-5-4.4-4.9-13.2-6.5-27.8-14.1-39.7-5.2-8.1-13.1-14.5-22.2-17.8-4.3-1.6-8.8-2.5-13.3-2.7-4.5-.2-9.1.2-13.6,1.4-.2,0-.5.1-.8.3h0Z"/>
            <path d="M315.4,102.4c-1.7,0-3.5-.7-5-2-1.6-1.5-2.6-3.4-3.4-5-4.4-9.2-6.7-19.2-9-29l-.3-1.2c-2.5-10.8-5-20.5-9.6-29.2-5.2-9.9-12.7-17.2-21.1-20.5-3.6-1.4-7.6-2.2-11-2.8-.6-.1-1.2-.2-1.9-.3-1.6-.3-3.4-.6-5-.9-.1,0-.3,0-.5,0-1.1-.2-2.9-.4-3.7-2-.3-.6-.3-1.3-.1-1.9.3-.7.9-1.3,1.8-1.7.4-.2.7-.3,1-.3,4.6-1.2,9.3-1.7,14.1-1.5,4.8.2,9.4,1.2,13.8,2.8,9.4,3.5,17.6,10,23,18.5,5.1,7.9,7.6,17,10,25.9,1.3,4.7,2.6,9.5,4.3,14.1.7,1.9,1.9,3.6,3,3.3.8-.2,1.4-1.6,1.8-2.8l16.6-48.9c.7-2.1,1.5-4.6,3.3-6.5,2.2-2.3,5.4-3.2,7.9-2.1,2.2,1,3.7,3.3,3.9,6.1.1,2.2-.5,4.4-1,6.2-7.4,24.4-15.6,50.3-26,75.3-.8,1.8-2.2,5.3-5.4,6.2-.5.2-1.1.2-1.7.2h0ZM250.5,8.1c1.4.3,2.9.5,4.3.8.6.1,1.3.2,1.9.3,3.6.6,7.8,1.4,11.7,2.9,9.2,3.6,17.3,11.4,22.9,22.1,4.8,9.1,7.3,19,9.9,30.1l.3,1.2c2.2,9.5,4.5,19.4,8.7,28.3.6,1.4,1.4,2.9,2.6,4,1,.9,2.4,1.3,3.4,1,1.6-.5,2.5-2.5,3.3-4.3,10.3-24.9,18.5-50.7,25.8-75,.5-1.7,1-3.4.9-5,0-1.2-.7-2.7-1.9-3.2-1.3-.6-3,.2-4,1.3-1.3,1.4-2,3.4-2.6,5.3l-16.6,48.9c-.5,1.4-1.5,4.3-4.2,5-2.8.7-5.5-1.4-7-5.5-1.7-4.7-3.1-9.6-4.4-14.4-2.5-9-4.8-17.5-9.6-24.9-5-7.8-12.6-13.9-21.4-17.1-4.1-1.5-8.4-2.4-12.8-2.6-3.8-.2-7.5.1-11.2.9h0Z"/>
          </g>
        </g>
      </g>
      <g class="st3">
        <g class="st3">
          <path d="M352.7,35.2v-14.6h9.3v2.2h-6.7v3.6h6v2.2h-6v4.3h7.2v2.2h-9.8Z"/>
          <path d="M368.2,20.6c.3.5.7,1.2,1,2,.4.8.8,1.6,1.2,2.4.4.8.8,1.7,1.2,2.6.4.9.7,1.7,1.1,2.4.3-.7.7-1.6,1-2.4.4-.9.8-1.7,1.2-2.6.4-.8.8-1.7,1.2-2.4.4-.8.7-1.4,1-2h2.4c.1,1.1.2,2.2.4,3.4.1,1.2.2,2.4.3,3.7,0,1.3.2,2.5.3,3.8,0,1.3.1,2.5.2,3.7h-2.6c0-1.7-.1-3.4-.2-5.2s-.2-3.5-.4-5.2c-.2.3-.3.7-.5,1.2-.2.4-.4.9-.7,1.5-.2.5-.5,1.1-.7,1.6-.2.6-.5,1.1-.7,1.6-.2.5-.4,1-.6,1.5-.2.5-.4.8-.5,1.2h-2c-.1-.3-.3-.7-.5-1.2-.2-.5-.4-1-.6-1.5-.2-.5-.5-1.1-.7-1.6-.2-.6-.5-1.1-.7-1.6-.2-.5-.5-1-.7-1.5-.2-.5-.4-.8-.5-1.1-.2,1.7-.3,3.4-.4,5.2s-.1,3.5-.2,5.2h-2.6c0-1.2.1-2.5.2-3.7,0-1.3.2-2.6.3-3.8,0-1.3.2-2.5.3-3.7.1-1.2.2-2.3.4-3.3h2.4Z"/>
          <path d="M387.7,20.5c2.1,0,3.7.4,4.9,1.2,1.1.8,1.7,2,1.7,3.6s-.2,1.6-.5,2.2c-.3.6-.7,1.1-1.3,1.5-.6.4-1.3.7-2.1.8-.8.2-1.8.3-2.8.3h-1.3v5.1h-2.6v-14.3c.6-.1,1.3-.2,2-.3.7,0,1.4,0,2.1,0ZM387.9,22.8c-.7,0-1.2,0-1.7,0v5h1.3c1.3,0,2.3-.2,2.9-.5.7-.4,1-1,1-2s0-.9-.3-1.2c-.2-.3-.4-.6-.8-.8-.3-.2-.7-.3-1.1-.4-.4,0-.9-.1-1.4-.1Z"/>
          <path d="M400.7,20.5c2.1,0,3.7.4,4.8,1.2,1.1.8,1.7,1.9,1.7,3.5s-1,3.3-2.9,4c.3.3.6.7.9,1.2s.7,1,1,1.5.7,1.1,1,1.7c.3.6.6,1.1.9,1.7h-3c-.3-.5-.6-1-.9-1.5-.3-.5-.6-1-.9-1.5-.3-.5-.6-.9-.9-1.4-.3-.4-.6-.8-.9-1.1-.2,0-.4,0-.5,0h-1.7v5.5h-2.6v-14.3c.6-.1,1.3-.2,2.1-.3.7,0,1.4,0,2,0ZM400.9,22.8c-.6,0-1.1,0-1.6,0v4.7h1.2c.6,0,1.2,0,1.7-.1s.9-.2,1.2-.4c.3-.2.6-.4.7-.7.2-.3.3-.7.3-1.2s0-.8-.3-1.1c-.2-.3-.4-.6-.7-.7-.3-.2-.7-.3-1.1-.4-.4,0-.9-.1-1.4-.1Z"/>
          <path d="M410.1,35.2v-14.6h9.3v2.2h-6.7v3.6h6v2.2h-6v4.3h7.2v2.2h-9.8Z"/>
          <path d="M425.9,33.2c1,0,1.6-.2,2.1-.5.4-.3.7-.8.7-1.4s0-.7-.2-.9c-.1-.3-.4-.5-.6-.7-.3-.2-.6-.4-1-.6-.4-.2-.8-.3-1.3-.5-.5-.2-1-.4-1.5-.6-.5-.2-.9-.5-1.2-.8-.4-.3-.6-.7-.9-1.2s-.3-1-.3-1.6c0-1.3.5-2.3,1.4-3.1s2.1-1.1,3.7-1.1,1.7.1,2.4.3c.7.2,1.3.4,1.7.7l-.8,2.1c-.5-.3-1-.5-1.6-.6s-1.2-.2-1.8-.2-1.3.1-1.7.4-.6.7-.6,1.2,0,.6.2.8c.1.2.3.4.6.6s.5.3.9.5c.3.2.7.3,1.1.4.7.3,1.3.5,1.8.8.5.3,1,.6,1.4.9.4.4.7.8.9,1.3.2.5.3,1.1.3,1.8,0,1.3-.5,2.3-1.4,3.1-.9.7-2.3,1.1-4.1,1.1s-1.2,0-1.6-.1c-.5,0-.9-.2-1.3-.3s-.7-.2-1-.3c-.3-.1-.5-.2-.7-.3l.8-2.2c.4.2.9.4,1.5.6s1.4.3,2.3.3Z"/>
          <path d="M443.4,35.2c-.2-.6-.4-1.1-.6-1.7-.2-.6-.4-1.1-.6-1.7h-6.1c-.2.6-.4,1.2-.6,1.7-.2.6-.4,1.1-.6,1.7h-2.8c.5-1.6,1.1-3,1.6-4.3.5-1.3,1-2.6,1.4-3.7s.9-2.3,1.4-3.4c.5-1.1.9-2.1,1.4-3.1h2.5c.5,1,1,2.1,1.4,3.1.5,1.1.9,2.2,1.4,3.4s1,2.4,1.4,3.7c.5,1.3,1,2.8,1.6,4.3h-2.9ZM439.1,23.4c-.3.7-.7,1.6-1.1,2.7-.4,1.1-.8,2.2-1.3,3.5h4.8c-.4-1.2-.9-2.4-1.3-3.5-.4-1.1-.8-2-1.1-2.7Z"/>
          <path d="M451.9,33.2c1,0,1.6-.2,2.1-.5s.7-.8.7-1.4,0-.7-.2-.9-.4-.5-.6-.7-.6-.4-1-.6c-.4-.2-.8-.3-1.3-.5-.5-.2-1-.4-1.5-.6-.5-.2-.9-.5-1.2-.8-.4-.3-.6-.7-.9-1.2-.2-.4-.3-1-.3-1.6,0-1.3.5-2.3,1.4-3.1s2.1-1.1,3.7-1.1,1.7.1,2.4.3c.7.2,1.3.4,1.7.7l-.8,2.1c-.5-.3-1-.5-1.6-.6-.6-.1-1.2-.2-1.8-.2s-1.3.1-1.7.4c-.4.3-.6.7-.6,1.2s0,.6.2.8c.1.2.3.4.6.6.2.2.5.3.9.5.3.2.7.3,1.1.4.7.3,1.3.5,1.8.8.5.3,1,.6,1.4.9.4.4.7.8.9,1.3.2.5.3,1.1.3,1.8,0,1.3-.5,2.3-1.4,3.1-.9.7-2.3,1.1-4.1,1.1s-1.2,0-1.6-.1c-.5,0-.9-.2-1.3-.3-.4-.1-.7-.2-1-.3-.3-.1-.5-.2-.7-.3l.8-2.2c.4.2.9.4,1.5.6.6.2,1.4.3,2.3.3Z"/>
        </g>
      </g>
      <g class="st3">
        <g class="st3">
          <path d="M5.9,69.9c2.1,0,3.7.4,4.9,1.2,1.1.8,1.7,2,1.7,3.6s-.2,1.6-.5,2.2c-.3.6-.7,1.1-1.3,1.5-.6.4-1.3.7-2.1.8-.8.2-1.8.3-2.8.3h-1.3v5.1H1.7v-14.3c.6-.1,1.3-.2,2-.3.7,0,1.4,0,2.1,0ZM6,72.2c-.7,0-1.2,0-1.7,0v5h1.3c1.3,0,2.3-.2,2.9-.5.7-.4,1-1,1-2s0-.9-.3-1.2c-.2-.3-.4-.6-.8-.8-.3-.2-.7-.3-1.1-.4-.4,0-.9-.1-1.4-.1Z"/>
          <path d="M20.4,84.9c-1,0-1.8-.1-2.6-.4-.7-.3-1.3-.7-1.8-1.2-.5-.5-.8-1.1-1-1.8-.2-.7-.3-1.5-.3-2.3v-9.1h2.7v8.8c0,.7,0,1.2.2,1.7s.4.9.6,1.1c.3.3.6.5,1,.7.4.1.8.2,1.2.2s.9,0,1.3-.2c.4-.1.7-.4,1-.7s.5-.7.6-1.1.2-1,.2-1.7v-8.8h2.7v9.1c0,.8-.1,1.6-.3,2.3-.2.7-.6,1.3-1,1.8-.5.5-1.1.9-1.8,1.2-.7.3-1.6.4-2.6.4ZM24,65.7l-3.4,3.3-1.3-1.1,3.1-3.7,1.6,1.5Z"/>
          <path d="M34,84.7c-.8,0-1.5,0-2.3,0-.8,0-1.5-.2-2.1-.3v-14.1c.3,0,.6-.1,1-.2.3,0,.7,0,1.1-.1.4,0,.7,0,1.1,0s.7,0,1,0c.9,0,1.7,0,2.5.2.8.1,1.4.4,2,.7s1,.7,1.3,1.2.5,1.1.5,1.9-.2,1.3-.5,1.8c-.3.5-.8.9-1.4,1.2.9.3,1.5.7,2,1.3.4.6.6,1.3.6,2.2,0,1.5-.5,2.6-1.6,3.4-1.1.7-2.8,1.1-5,1.1ZM32.2,75.9h1.9c1,0,1.8-.1,2.4-.4s.9-.8.9-1.5-.3-1.2-.9-1.5c-.6-.3-1.4-.4-2.3-.4s-.8,0-1.1,0c-.3,0-.6,0-.8,0v3.8ZM32.2,78v4.4c.3,0,.6,0,.9,0,.3,0,.6,0,.9,0,.5,0,1.1,0,1.5-.1.5,0,.9-.2,1.2-.4.3-.2.6-.4.8-.7s.3-.7.3-1.1c0-.8-.3-1.4-.9-1.7-.6-.3-1.4-.5-2.5-.5h-2.3Z"/>
          <path d="M52.6,82.3v2.3h-9.2v-14.6h2.6v12.3h6.6Z"/>
          <path d="M54.6,70h2.6v14.6h-2.6v-14.6Z"/>
          <path d="M67.2,84.9c-1.1,0-2.1-.2-2.9-.5-.9-.3-1.6-.8-2.2-1.5-.6-.7-1.1-1.4-1.4-2.4-.3-.9-.5-2-.5-3.2s.2-2.3.6-3.2c.4-.9.9-1.7,1.5-2.4.6-.7,1.4-1.1,2.3-1.5s1.8-.5,2.8-.5,1.1,0,1.6.1c.5,0,.9.2,1.3.3.4.1.7.2.9.4.2.1.4.2.5.3l-.8,2.2c-.3-.2-.8-.4-1.4-.6-.6-.2-1.3-.3-2-.3s-1.2.1-1.8.3c-.5.2-1,.5-1.4,1-.4.4-.7,1-.9,1.6-.2.7-.3,1.4-.3,2.3s0,1.5.3,2.1c.2.6.4,1.2.8,1.7.4.5.8.8,1.4,1.1.6.3,1.2.4,2,.4s1.7,0,2.3-.3c.6-.2,1-.4,1.4-.5l.7,2.2c-.2.1-.4.2-.7.3-.3.1-.6.2-1,.3-.4.1-.8.2-1.3.3-.5,0-1,0-1.6,0Z"/>
          <path d="M87.3,77.3c0,1.2-.2,2.3-.6,3.3-.4,1-.9,1.7-1.5,2.4-.6.6-1.4,1.1-2.2,1.4s-1.8.5-2.7.5-1.9-.2-2.7-.5c-.9-.3-1.6-.8-2.2-1.4-.6-.6-1.1-1.4-1.5-2.4-.4-1-.6-2.1-.6-3.3s.2-2.3.6-3.3c.4-.9.9-1.7,1.5-2.4.7-.6,1.4-1.1,2.3-1.4.9-.3,1.8-.5,2.7-.5s1.9.2,2.7.5c.9.3,1.6.8,2.2,1.4.6.6,1.1,1.4,1.5,2.4.4.9.6,2,.6,3.3ZM75.9,77.3c0,.8,0,1.5.3,2.2.2.7.5,1.2.9,1.7s.8.8,1.4,1.1c.5.3,1.1.4,1.8.4s1.3-.1,1.8-.4c.5-.3,1-.6,1.4-1.1.4-.5.7-1,.9-1.7.2-.7.3-1.4.3-2.2s0-1.5-.3-2.2c-.2-.7-.5-1.2-.9-1.7-.4-.5-.8-.8-1.4-1.1-.5-.3-1.1-.4-1.8-.4s-1.3.1-1.8.4-1,.6-1.4,1.1-.7,1-.9,1.7c-.2.6-.3,1.4-.3,2.2Z"/>
        </g>
      </g>
      <path class="st0" d="M92.2,77.2c-1-5,3.4-9.4,8.4-8.4,2.8.5,5.1,2.8,5.6,5.6,1,5-3.4,9.4-8.4,8.4-2.8-.5-5.1-2.8-5.6-5.6Z"/>
    </g>
    <path class="st4" d="M331.9,28.3c-1-5,3.4-9.4,8.4-8.4,2.8.5,5.1,2.8,5.6,5.6,1,5-3.4,9.4-8.4,8.4-2.8-.5-5.1-2.8-5.6-5.6Z"/>
  </g>
</svg>